<?xml version="1.0" encoding="UTF-8" standalone="no"?>
<svg width="25px" height="26px" viewBox="0 0 25 26" version="1.1" xmlns="http://www.w3.org/2000/svg" xmlns:xlink="http://www.w3.org/1999/xlink">
    <!-- Generator: Sketch 40.1 (33804) - http://www.bohemiancoding.com/sketch -->
    <title>Group 3</title>
    <desc>Created with Sketch.</desc>
    <defs></defs>
    <g id="Music-Fund-website---Visual-design" stroke="none" stroke-width="1" fill="none" fill-rule="evenodd">
        <g id="MF---About---Desktop" transform="translate(-164.000000, -3757.000000)" fill="#F6F4EF">
            <g id="Group-16" transform="translate(0.000000, 3509.000000)">
                <g id="Group-13" transform="translate(147.000000, 233.000000)">
                    <g id="Group" transform="translate(17.000000, 15.000000)">
                        <g id="Group-3">
                            <path d="M12.4691358,0.155308735 C11.6975309,0.155308735 11.0802469,0.776543675 11.0802469,1.55308735 L11.0802469,16.2142319 L5.49382716,10.5920557 C4.9382716,10.0329443 4.07407407,10.0329443 3.51851852,10.5920557 C2.96296296,11.1511672 2.96296296,12.0208961 3.51851852,12.5800075 L12.4691358,21.5879142 L21.2654321,12.5800075 C21.7901235,12.0208961 21.7901235,11.1511672 21.2345679,10.5920557 C20.6790123,10.064006 19.8148148,10.064006 19.2592593,10.6231175 L13.8271605,16.2142319 L13.8271605,1.55308735 C13.8580247,0.776543675 13.2407407,0.155308735 12.4691358,0.155308735 L12.4691358,0.155308735 Z" id="Shape"></path>
                            <path d="M0.0308641975,24.3834714 C0.0308641975,25.1600151 0.648148148,25.78125 1.41975309,25.78125 L23.3950617,25.78125 C24.1666667,25.78125 24.7839506,25.1600151 24.7839506,24.3834714 C24.7839506,23.6069277 24.1666667,22.9856928 23.3950617,22.9856928 L1.41975309,22.9856928 C0.648148148,22.9856928 0.0308641975,23.6069277 0.0308641975,24.3834714 L0.0308641975,24.3834714 Z" id="Shape"></path>
                        </g>
                    </g>
                </g>
            </g>
        </g>
    </g>
</svg>