<?xml version="1.0" encoding="UTF-8" standalone="no"?>
<svg width="233px" height="45px" viewBox="0 0 233 45" version="1.1" xmlns="http://www.w3.org/2000/svg" xmlns:xlink="http://www.w3.org/1999/xlink">
    <!-- Generator: Sketch 40.1 (33804) - http://www.bohemiancoding.com/sketch -->
    <title>MusicFund_logo2016_CMYK_NoBaseline Copy</title>
    <desc>Created with Sketch.</desc>
    <defs>
        <polygon id="path-1" points="0.0243164236 0.291260593 0.0243164236 35.7729112 232.452446 35.7729112 232.452446 0.291260593 116.238381 0.291260593"></polygon>
    </defs>
    <g id="Symbols" stroke="none" stroke-width="1" fill="none" fill-rule="evenodd">
        <g id="hoofdnav" transform="translate(-51.000000, -26.000000)">
            <g id="MusicFund_logo2016_CMYK_NoBaseline-Copy">
                <g transform="translate(51.000000, 26.000000)">
                    <polyline id="Fill-1" fill="#F0821A" points="52.6271186 8.38983051 54.5524966 8.38983051 65.5932203 24.6097489 76.6335332 8.38983051 78.559322 8.38983051 78.559322 35.0847458 76.5160219 35.0847458 76.5160219 11.9940292 65.6326647 27.7837545 65.4748873 27.7837545 54.591941 11.9940292 54.591941 35.0847458 52.6271186 35.0847458 52.6271186 8.38983051"></polyline>
                    <path d="M82.3728814,27.6169732 L82.3728814,15.2542373 L84.2541083,15.2542373 L84.2541083,27.26449 C84.2541083,31.3791174 86.5196115,34.0834018 90.4744043,34.0834018 C94.3143559,34.0834018 97.2713154,31.1049182 97.2713154,26.9497142 L97.2713154,15.2542373 L99.1525424,15.2542373 L99.1525424,35.3773433 L97.2713154,35.3773433 L97.2713154,31.6533166 C95.9659005,34.0051177 93.777092,35.8474576 90.2057723,35.8474576 C85.2523431,35.8474576 82.3728814,32.3988597 82.3728814,27.6169732" id="Fill-2" fill="#F0821A"></path>
                    <path d="M102.966102,32.9726715 L104.114644,31.4566536 C106.333834,33.1278897 108.790439,34.0600111 111.365545,34.0600111 C114.099341,34.0600111 116.238979,32.5842199 116.238979,30.2917049 L116.238979,30.2136895 C116.238979,27.8825733 113.703235,27.0268419 110.8903,26.2499385 C107.601706,25.3178171 103.956368,24.3458753 103.956368,20.8103963 L103.956368,20.7327872 C103.956368,17.5467522 106.690164,15.2542373 110.613109,15.2542373 C113.029523,15.2542373 115.763734,16.1087497 117.784456,17.4305418 L116.754,19.0229498 C114.891968,17.8185871 112.673193,17.0408711 110.53397,17.0408711 C107.759983,17.0408711 105.937728,18.5178814 105.937728,20.4995537 L105.937728,20.5775691 C105.937728,22.792475 108.671525,23.6079797 111.563598,24.4234843 C114.81283,25.3178171 118.220339,26.4831721 118.220339,29.9808623 L118.220339,30.0584714 C118.220339,33.5939504 115.129798,35.8474576 111.24663,35.8474576 C108.315195,35.8474576 105.105325,34.68129 102.966102,32.9726715" id="Fill-3" fill="#F0821A"></path>
                    <path d="M122.259025,35.0847458 L124.096907,35.0847458 L124.096907,14.8835532 L122.259025,14.8835532 L122.259025,35.0847458 Z M122.033898,11.0109658 L124.322034,11.0109658 L124.322034,8.38983051 L122.033898,8.38983051 L122.033898,11.0109658 Z" id="Fill-4" fill="#F0821A"></path>
                    <path d="M128.898305,25.6278744 L128.898305,25.5508475 C128.898305,20.0363618 133.356775,15.2542373 139.067706,15.2542373 C142.823046,15.2542373 145.169673,16.9504437 147.047139,18.8789409 L145.678102,20.2674427 C143.957297,18.5317146 142.001297,17.0274707 139.028847,17.0274707 C134.491435,17.0274707 130.97088,20.7687229 130.97088,25.4738205 L130.97088,25.5508475 C130.97088,30.2942569 134.608418,34.0730144 139.185098,34.0730144 C142.001297,34.0730144 144.191673,32.646604 145.873621,30.7955371 L147.20339,31.9517482 C145.169673,34.2270683 142.744511,35.8474576 139.067706,35.8474576 C133.317916,35.8474576 128.898305,31.1423601 128.898305,25.6278744" id="Fill-5" fill="#F0821A"></path>
                    <path d="M152.693237,9.15254237 L168.408051,9.15254237 C168.912976,9.15254237 169.322034,9.56526372 169.322034,10.0747102 L169.322034,12.501856 C169.322034,13.0108927 168.912976,13.4240239 168.408051,13.4240239 L156.428786,13.4240239 L156.428786,21.5579543 L166.422881,21.5579543 C166.927806,21.5579543 167.336864,21.9706756 167.336864,22.4797123 L167.336864,24.9060384 C167.336864,25.4154849 166.927806,25.8282063 166.422881,25.8282063 L156.428786,25.8282063 L156.428786,34.9252898 C156.428786,35.4343264 156.019322,35.8474576 155.514803,35.8474576 L152.693237,35.8474576 C152.188719,35.8474576 151.779661,35.4343264 151.779661,34.9252898 L151.779661,10.0747102 C151.779661,9.56526372 152.188719,9.15254237 152.693237,9.15254237" id="Fill-6" fill="#F0821A"></path>
                    <path d="M170.847458,28.0915854 L170.847458,16.1777314 C170.847458,15.667736 171.247149,15.2542373 171.740115,15.2542373 L174.423249,15.2542373 C174.916215,15.2542373 175.316303,15.667736 175.316303,16.1777314 L175.316303,26.7155833 C175.316303,29.8482363 176.83013,31.606119 179.489052,31.606119 C182.074941,31.606119 183.884072,29.7718602 183.884072,26.6392072 L183.884072,16.1777314 C183.884072,15.667736 184.283763,15.2542373 184.777127,15.2542373 L187.496776,15.2542373 C187.990139,15.2542373 188.389831,15.667736 188.389831,16.1777314 L188.389831,34.5034842 C188.389831,35.0134796 187.990139,35.4273889 187.496776,35.4273889 L184.777127,35.4273889 C184.283763,35.4273889 183.884072,35.0134796 183.884072,34.5034842 L183.884072,32.2935041 C182.628635,34.2041391 180.819108,35.8474576 177.79066,35.8474576 C173.39564,35.8474576 170.847458,32.7911808 170.847458,28.0915854" id="Fill-7" fill="#F0821A"></path>
                    <path d="M193.098328,14.9128008 L195.786721,14.9128008 C196.281124,14.9128008 196.681659,15.3262747 196.681659,15.8362396 L196.681659,18.0070806 C197.939743,16.1347457 199.753483,14.4915254 202.787919,14.4915254 C207.192207,14.4915254 209.745763,17.5488512 209.745763,22.2087479 L209.745763,34.1608963 C209.745763,34.6708612 209.345228,35.0847458 208.850825,35.0847458 L206.162432,35.0847458 C205.668028,35.0847458 205.267494,34.6708612 205.267494,34.1608963 L205.267494,23.6228535 C205.267494,20.4903879 203.750475,18.6944246 201.085946,18.6944246 C198.4954,18.6944246 196.681659,20.5667595 196.681659,23.699225 L196.681659,34.1608963 C196.681659,34.6708612 196.281124,35.0847458 195.786721,35.0847458 L193.098328,35.0847458 C192.603924,35.0847458 192.20339,34.6708612 192.20339,34.1608963 L192.20339,15.8362396 C192.20339,15.3262747 192.603924,14.9128008 193.098328,14.9128008" id="Fill-8" fill="#F0821A"></path>
                    <g id="Group-12">
                        <mask id="mask-2" fill="white">
                            <use xlink:href="#path-1"></use>
                        </mask>
                        <g id="Clip-10"></g>
                        <path d="M227.96485,25.3877398 L227.96485,25.3119713 C227.96485,21.4453342 225.249921,18.9058677 222.195373,18.9058677 C219.065444,18.9058677 216.463181,21.3316814 216.463181,25.3119713 L216.463181,25.3877398 C216.463181,29.2531549 219.103134,31.7926213 222.195373,31.7926213 C225.249921,31.7926213 227.96485,29.2152706 227.96485,25.3877398 L227.96485,25.3877398 Z M211.863325,25.3877398 L211.863325,25.3119713 C211.863325,18.6785622 216.35011,14.9255778 221.101539,14.9255778 C224.38223,14.9255778 226.456421,16.5558224 227.889469,18.4512567 L227.889469,9.68003563 C227.889469,9.17409765 228.297579,8.76388867 228.801335,8.76388867 L231.54058,8.76388867 C232.044335,8.76388867 232.452446,9.17409765 232.452446,9.68003563 L232.452446,34.4396302 C232.452446,34.9455682 232.044335,35.3561845 231.54058,35.3561845 L228.801335,35.3561845 C228.297579,35.3561845 227.889469,34.9455682 227.889469,34.4396302 L227.889469,32.0199268 C226.41873,34.1047824 224.34454,35.7729112 221.101539,35.7729112 C216.425491,35.7729112 211.863325,32.0199268 211.863325,25.3877398 L211.863325,25.3877398 Z" id="Fill-9" fill="#F0821A" mask="url(#mask-2)"></path>
                        <path d="M5.56440826,21.8465813 C6.09410102,21.8722448 6.58448222,22.1358051 6.90019046,22.5639378 C6.90019046,22.5639378 8.71541147,25.0235622 10.1897973,27.022058 C11.9134264,23.6874297 15.8429605,16.0849172 15.8429605,16.0849172 C16.1785271,15.4359967 16.8751927,15.0591911 17.5990115,15.1353669 C18.3228304,15.2115428 18.926283,15.7252205 19.1208144,16.4303563 C19.1208144,16.4303563 21.5962263,25.408515 23.2987812,31.583647 C25.011468,25.6667797 27.3705663,17.5171861 27.3705663,17.5171861 C27.4722901,17.1640071 29.7539811,9.68614599 39.2284703,8.04286595 C35.1307477,3.29674403 29.090548,0.291260593 22.3476038,0.291260593 C10.0053977,0.291260593 0,10.3481019 0,22.753359 C0,24.0915283 0.122797939,25.3999605 0.346103762,26.67336 L4.16499808,22.4303245 C4.52082841,22.0347804 5.03431022,21.8205104 5.56440826,21.8465813" id="Fill-11" fill="#F0821A" mask="url(#mask-2)"></path>
                    </g>
                    <path d="M41.8882272,11.440678 C33.134613,12.0786541 31.1151111,18.2800569 31.0334042,18.5451741 L25.2025394,38.4406688 C24.9805893,39.1976854 24.2797799,39.7166211 23.485475,39.7113753 C22.6915765,39.7061294 21.9972711,39.1787197 21.7850771,38.4196854 C21.7850771,38.4196854 18.6521661,27.1955822 17.1302226,21.7455467 C15.080233,25.6633902 12.23228,31.1053552 12.23228,31.1053552 C11.9497611,31.6448708 11.4074874,32.0015886 10.7969214,32.0496083 C10.1863554,32.0984351 9.594082,31.8308967 9.2294497,31.3426291 C9.2294497,31.3426291 6.94653445,28.2879298 5.52743595,26.3885282 C4.1563047,27.8928768 2.34005374,29.8863002 2.34005374,29.8863002 C2.11281912,30.1356798 1.82826772,30.2995118 1.52542373,30.3882877 C4.6652452,38.914006 12.9086993,45 22.58426,45 C34.9642785,45 45,35.0377257 45,22.7479077 C45,18.6190196 43.8626074,14.7548451 41.8882272,11.440678" id="Fill-13" fill="#F0821A"></path>
                </g>
            </g>
        </g>
    </g>
</svg>