<?xml version="1.0" encoding="UTF-8" standalone="no"?>
<svg width="72px" height="85px" viewBox="0 0 72 85" version="1.1" xmlns="http://www.w3.org/2000/svg" xmlns:xlink="http://www.w3.org/1999/xlink">
    <!-- Generator: Sketch 40.1 (33804) - http://www.bohemiancoding.com/sketch -->
    <title>repaired instruments</title>
    <desc>Created with Sketch.</desc>
    <defs></defs>
    <g id="Symbols" stroke="none" stroke-width="1" fill="none" fill-rule="evenodd">
        <g id="numbers" transform="translate(-446.000000, -210.000000)">
            <g id="Group-16">
                <g id="Group-15" transform="translate(108.000000, 176.000000)">
                    <g id="repaired-instruments" transform="translate(338.000000, 34.000000)">
                        <path d="M63.5001875,54 C63.8841395,54 64.2680915,53.8530092 64.5605549,53.5605275 L67.56018,50.560715 C68.1466067,49.9742516 68.1466067,49.0263109 67.56018,48.4398475 C66.9737533,47.8533842 66.0258718,47.8533842 65.4394451,48.4398475 L62.43982,51.43966 C61.8533933,52.0261234 61.8533933,52.9740641 62.43982,53.5605275 C62.7322835,53.8530092 63.1162355,54 63.5001875,54" id="Shape" fill="#BC8303"></path>
                        <path d="M70.4,57 L65.6,57 C64.7152,57 64,57.6705 64,58.5 C64,59.3295 64.7152,60 65.6,60 L70.4,60 C71.2848,60 72,59.3295 72,58.5 C72,57.6705 71.2848,57 70.4,57" id="Shape" fill="#BC8303"></path>
                        <path d="M64.5605549,62.4398475 C63.9741282,61.8533842 63.0262467,61.8533842 62.43982,62.4398475 C61.8533933,63.0263109 61.8533933,63.9742516 62.43982,64.560715 L65.4394451,67.5605275 C65.7319085,67.8530092 66.1158605,68 66.4998125,68 C66.8837645,68 67.2677165,67.8530092 67.56018,67.5605275 C68.1466067,66.9740641 68.1466067,66.0261234 67.56018,65.43966 L64.5605549,62.4398475 L64.5605549,62.4398475 Z" id="Shape" fill="#BC8303"></path>
                        <path d="M51.8839567,79.033 L51.8839567,82.1666667 L43.3280878,82.1666667 L43.3280878,77.6191667 L45.3529768,77.9535 L51.8839567,79.033 L51.8839567,79.033 Z M9.10461247,57.6200833 L9.10461247,48.1666667 L17.6604813,48.1666667 L17.6604813,59.05375 L11.9080855,58.0904167 L9.10461247,57.6200833 L9.10461247,57.6200833 Z M9.10461247,34 L17.6604813,34 L17.6604813,24.0833333 L9.10461247,24.0833333 L9.10461247,34 L9.10461247,34 Z M9.10461247,9.91666667 L17.6604813,9.91666667 L17.6604813,2.83333333 L9.10461247,2.83333333 L9.10461247,9.91666667 L9.10461247,9.91666667 Z M43.3280878,9.91666667 L51.8839567,9.91666667 L51.8839567,2.83333333 L43.3280878,2.83333333 L43.3280878,9.91666667 L43.3280878,9.91666667 Z M43.3280878,34 L51.8839567,34 L51.8839567,24.0833333 L43.3280878,24.0833333 L43.3280878,34 L43.3280878,34 Z M51.8839567,52.9578333 L50.7388962,53.5259167 L48.6141888,51.4150833 C48.3361231,51.1388333 47.9710727,51 47.6060222,51 C47.2409718,51 46.8759214,51.1388333 46.5978557,51.4150833 L44.4731483,53.5259167 L43.3280878,52.9578333 L43.3280878,48.1666667 L51.8839567,48.1666667 L51.8839567,52.9578333 L51.8839567,52.9578333 Z M14.808525,41.0833333 C14.808525,41.8653333 14.1696868,42.5 13.3825469,42.5 C12.595407,42.5 11.9565688,41.8653333 11.9565688,41.0833333 C11.9565688,40.3013333 12.595407,39.6666667 13.3825469,39.6666667 C14.1696868,39.6666667 14.808525,40.3013333 14.808525,41.0833333 L14.808525,41.0833333 L14.808525,41.0833333 Z M46.1800441,41.0833333 C46.1800441,40.3013333 46.8188823,39.6666667 47.6060222,39.6666667 C48.3931622,39.6666667 49.0320004,40.3013333 49.0320004,41.0833333 C49.0320004,41.8653333 48.3931622,42.5 47.6060222,42.5 C46.8188823,42.5 46.1800441,41.8653333 46.1800441,41.0833333 L46.1800441,41.0833333 L46.1800441,41.0833333 Z M46.1800441,17 C46.1800441,16.218 46.8188823,15.5833333 47.6060222,15.5833333 C48.3931622,15.5833333 49.0320004,16.218 49.0320004,17 C49.0320004,17.782 48.3931622,18.4166667 47.6060222,18.4166667 C46.8188823,18.4166667 46.1800441,17.782 46.1800441,17 L46.1800441,17 L46.1800441,17 Z M20.5124376,34 L40.4761315,34 L40.4761315,24.0833333 L20.5124376,24.0833333 L20.5124376,34 L20.5124376,34 Z M14.808525,17 C14.808525,17.782 14.1696868,18.4166667 13.3825469,18.4166667 C12.595407,18.4166667 11.9565688,17.782 11.9565688,17 C11.9565688,16.218 12.595407,15.5833333 13.3825469,15.5833333 C14.1696868,15.5833333 14.808525,16.218 14.808525,17 L14.808525,17 L14.808525,17 Z M14.808525,65.1666667 C14.808525,65.9486667 14.1696868,66.5833333 13.3825469,66.5833333 C12.595407,66.5833333 11.9565688,65.9486667 11.9565688,65.1666667 C11.9565688,64.3846667 12.595407,63.75 13.3825469,63.75 C14.1696868,63.75 14.808525,64.3846667 14.808525,65.1666667 L14.808525,65.1666667 L14.808525,65.1666667 Z M47.6060222,69.7694167 C48.3931622,69.7694167 49.0320004,70.4040833 49.0320004,71.1860833 C49.0320004,71.9695 48.3931622,72.60275 47.6060222,72.60275 C46.8188823,72.60275 46.1800441,71.9695 46.1800441,71.1860833 C46.1800441,70.4040833 46.8188823,69.7694167 47.6060222,69.7694167 L47.6060222,69.7694167 L47.6060222,69.7694167 Z M17.6604813,82.1666667 L9.10461247,82.1666667 L9.10461247,71.9680833 L17.6604813,73.3819167 L17.6604813,82.1666667 L17.6604813,82.1666667 Z M20.5124376,59.5325833 L20.5124376,48.1666667 L40.4761315,48.1666667 L40.4761315,53.8333333 C40.4761315,54.37025 40.7812909,54.8604167 41.2646975,55.0998333 L44.1166537,56.5165 C44.6642293,56.7885 45.3244572,56.6836667 45.7622325,56.2515833 L47.6060222,54.4198333 L49.449812,56.2515833 C49.7235998,56.5235833 50.0886502,56.6666667 50.4579785,56.6666667 C50.6747272,56.6666667 50.8929019,56.6185 51.0953908,56.5165 L53.947347,55.0998333 C54.4307536,54.8604167 54.7359129,54.37025 54.7359129,53.8333333 L54.7359129,48.1666667 L59.0138474,48.1666667 C59.8024133,48.1666667 60.4398255,47.5334167 60.4398255,46.75 L60.4398255,35.4166667 C60.4398255,34.63325 59.8024133,34 59.0138474,34 L54.7359129,34 L54.7359129,24.0833333 L59.0138474,24.0833333 C59.8024133,24.0833333 60.4398255,23.4500833 60.4398255,22.6666667 L60.4398255,11.3333333 C60.4398255,10.5499167 59.8024133,9.91666667 59.0138474,9.91666667 L54.7359129,9.91666667 L54.7359129,1.41666667 C54.7359129,0.63325 54.0985007,0 53.3099348,0 L41.9021097,0 C41.1135438,0 40.4761315,0.63325 40.4761315,1.41666667 L40.4761315,9.91666667 L20.5124376,9.91666667 L20.5124376,1.41666667 C20.5124376,0.63325 19.8750254,0 19.0864595,0 L7.67863433,0 C6.89006842,0 6.25265619,0.63325 6.25265619,1.41666667 L6.25265619,9.91666667 L1.97472177,9.91666667 C1.18615586,9.91666667 0.548743635,10.5499167 0.548743635,11.3333333 L0.548743635,22.6666667 C0.548743635,23.4500833 1.18615586,24.0833333 1.97472177,24.0833333 L6.25265619,24.0833333 L6.25265619,34 L1.97472177,34 C1.18615586,34 0.548743635,34.63325 0.548743635,35.4166667 L0.548743635,46.75 C0.548743635,47.5334167 1.18615586,48.1666667 1.97472177,48.1666667 L6.25265619,48.1666667 L6.25265619,57.14125 L3.53331588,56.6865 C3.16398754,56.627 2.77612149,56.7105833 2.46811021,56.92875 C2.16009893,57.1483333 1.95048015,57.4798333 1.88916309,57.851 L0.0197057451,69.0299167 C-0.110058266,69.802 0.41470169,70.5315833 1.19185978,70.6605 L6.25265619,71.4963333 L6.25265619,83.5833333 C6.25265619,84.36675 6.89006842,85 7.67863433,85 L19.0864595,85 C19.8750254,85 20.5124376,84.36675 20.5124376,83.5833333 L20.5124376,73.8508333 L40.4761315,77.1488333 L40.4761315,83.5833333 C40.4761315,84.36675 41.1135438,85 41.9021097,85 L53.3099348,85 C54.0985007,85 54.7359129,84.36675 54.7359129,83.5833333 L54.7359129,79.5033333 L57.4581052,79.9524167 C57.53796,79.9665833 57.6163888,79.97225 57.6933916,79.97225 C58.3778611,79.97225 58.9810499,79.4835 59.0994061,78.7921667 L60.9802712,67.7535 C61.0430143,67.3823333 60.9546036,67.0026667 60.736429,66.6966667 C60.5168283,66.38925 60.1831494,66.1824167 59.8109691,66.1200833 L20.5124376,59.5325833 Z" id="Shape" fill="#9C6D03"></path>
                    </g>
                </g>
            </g>
        </g>
    </g>
</svg>