<?xml version="1.0" encoding="UTF-8" standalone="no"?>
<svg width="119px" height="124px" viewBox="0 0 119 124" version="1.1" xmlns="http://www.w3.org/2000/svg" xmlns:xlink="http://www.w3.org/1999/xlink">
    <!-- Generator: Sketch 40.1 (33804) - http://www.bohemiancoding.com/sketch -->
    <title>Shape</title>
    <desc>Created with Sketch.</desc>
    <defs></defs>
    <g id="Symbols" stroke="none" stroke-width="1" fill="none" fill-rule="evenodd">
        <g id="numbers" transform="translate(-689.000000, -204.000000)" fill="#9C6D03">
            <g id="Group-16">
                <g id="Group-15" transform="translate(108.000000, 176.000000)">
                    <g id="workshops" transform="translate(574.000000, 1.000000)">
                        <path d="M73.2458582,27.0001683 L73.1296358,28.822798 C73.0718361,29.6957406 72.6351086,30.3316582 71.7892089,30.9222824 C70.9433131,31.5129066 69.6996779,31.9184068 68.5892361,31.9912504 L58.1370153,31.9912504 C51.1847349,31.9912504 45.5385666,37.6297658 45.5385666,44.557398 L45.5385666,54.0012311 C45.5385666,54.2650432 45.5463142,54.3256452 45.5463142,54.101208 C45.5460762,53.9673332 45.5385666,53.9486301 45.5385666,54.2242547 L45.5385666,58.3463195 C45.5312734,58.443596 45.5312734,58.541276 45.5385666,58.6385525 L45.5385666,66.9518994 C45.5385666,72.150176 47.4948328,76.8494421 50.621336,80.5254872 L50.621336,83.7554654 L38.6659801,71.8891477 C40.5386885,66.1132366 39.4414966,59.7476739 35.0553553,55.3931985 C31.8532006,52.2148527 27.6374516,50.6251364 23.4254196,50.6251364 C19.2133916,50.6251364 15.0053901,52.2148527 11.8032355,55.3931985 C5.3989215,61.74989 5.3989215,72.1158489 11.8032355,78.4721467 C16.190686,82.8171722 22.6016995,83.9055075 28.4152135,82.0481913 L42.315347,95.8448027 L28.1672735,103.858219 C22.4334098,107.093658 18.8850199,113.125188 18.8850199,119.654341 L18.8850199,153 L60.8256129,153 L96.2422903,153 L114.093968,153 L114.093968,119.654341 C114.093968,113.127156 110.550414,107.094446 104.819462,103.858219 L104.811715,103.858219 L90.6326465,95.821733 L104.70324,81.8482413 C110.482601,83.6905951 116.858078,82.6028622 121.214495,78.2798867 C125.552012,73.9734487 127.096912,67.6071457 125.204777,61.8146972 C124.992226,61.161634 124.452409,60.6655421 123.780058,60.5053795 C123.107707,60.3452168 122.399846,60.5440957 121.911825,61.0302735 L112.621824,70.2510868 L106.841724,69.6127835 L106.206379,63.8757316 L115.480881,54.6702981 C115.970707,54.1859119 116.171078,53.4833229 116.009715,52.8159797 C115.848351,52.1486364 115.348538,51.6128397 114.690575,51.4018703 C111.775682,50.463959 108.715337,50.3803345 105.842217,51.0634899 C102.969096,51.7470389 100.278912,53.1987578 98.1095877,55.347055 C93.7630136,59.6716054 92.6755767,65.9893276 94.5299534,71.7199575 L82.357652,83.8016049 L82.357652,80.8715576 C85.6586256,77.1514125 87.7271035,72.312011 87.7270995,66.9518994 L87.7270995,54.2242547 C87.7270995,54.0076925 87.7213354,54.0297779 87.7193519,54.1242778 C87.7206491,54.2030277 87.7270995,54.2528606 87.7270995,54.0166109 L87.7270995,40.0661891 L87.7038566,39.9431424 C87.2378763,36.4080635 86.1452584,33.2182726 84.0622374,30.8223067 C81.9792203,28.4267353 78.8571483,26.9820558 75.0976603,27.0001683 L73.2458582,27.0001683 L73.2458582,27.0001683 Z M75.8182334,31.2145182 C78.0800171,31.3877679 79.8428346,31.9877685 81.0559672,33.3832167 C82.4249727,34.9574275 83.3561361,37.3919923 83.76006,40.4045695 L83.76006,54.008921 C83.760068,53.8041713 83.7550893,53.845637 83.7523124,54.0858242 C83.7523124,54.3890113 83.76006,54.3821207 83.76006,54.2088709 L83.76006,55.339365 C82.6353408,54.7125159 81.433197,54.2771392 80.2114202,54.0550645 C77.4439738,53.5526402 74.5670847,53.7716869 71.7969605,53.8858743 C69.0268204,54.0000616 66.3791825,54.0158628 64.2037969,53.4244511 C62.0284113,52.8310706 60.3105681,51.7686479 58.8730876,49.3100762 C58.4976277,48.6685884 57.7907586,48.2910294 57.0445323,48.3333924 C56.1898334,48.3805247 55.4619977,48.966516 55.2392159,49.7868792 C55.2891213,49.601817 54.90293,50.4108501 54.2397084,51.1865366 C53.5765027,51.962223 52.6686338,52.8752414 51.7138229,53.7166841 C50.9616564,54.3793644 50.2155435,54.9167852 49.5056061,55.4085783 L49.5056061,54.2088709 C49.5056061,54.4254331 49.5117669,54.3532077 49.5133537,54.101208 C49.5133537,53.7980209 49.5056061,53.8202914 49.5056061,53.9935411 L49.5056061,44.557398 C49.5056061,39.7276669 53.3294831,35.9210545 58.1370153,35.9210545 L68.7906864,35.9210545 L68.8526713,35.9210545 C70.6551473,35.8029296 72.5078738,35.2384031 74.074906,34.1445679 C74.980228,33.5122062 75.2639943,32.2516543 75.8182334,31.2145182 L75.8182334,31.2145182 Z M57.4086906,53.4936644 C59.1152238,55.2887682 61.0460969,56.6474599 63.1577997,57.2235153 C66.1028068,58.0263705 69.1339741,57.9476088 71.9674162,57.831059 C74.8008623,57.7129341 77.4502734,57.5609114 79.4985948,57.9310359 C81.4178049,58.2775354 82.715717,58.9361051 83.76006,60.5303967 L83.76006,66.9365156 C83.76006,76.4695841 76.147581,84.0707721 66.6367069,84.0707721 C57.1258804,84.0707721 49.5056061,76.4695841 49.5056061,66.9365156 L49.5056061,60.0458998 C50.0250066,59.8096501 50.5111673,59.5109911 51.0319841,59.1845728 C52.131219,58.4947237 53.2675457,57.6145952 54.3481831,56.6621152 C55.4288206,55.710029 56.4404513,54.6924228 57.2614778,53.7320679 C57.3283621,53.653318 57.3440676,53.5684768 57.4086906,53.4936644 L57.4086906,53.4936644 Z M23.4331672,54.5318715 C26.6217228,54.5318715 29.8063987,55.7589287 32.2505353,58.1848192 C35.8882907,61.7962894 36.9199868,67.227965 34.853905,71.9045275 C34.5243472,72.6469968 34.6873774,73.5140923 35.2645531,74.0886086 L50.621336,89.331017 L50.621336,91.1305741 L47.2896416,93.0224183 C47.0204487,93.1053806 46.7721594,93.2443312 46.561317,93.430012 L45.8872337,93.814532 L30.6234263,78.6720966 C30.0463728,78.0965725 29.1725555,77.931661 28.4229611,78.256813 C23.7191154,80.3039165 18.2467827,79.2855071 14.6080554,75.6882159 L14.6003078,75.6882159 C9.71979872,70.8356473 9.722196,63.0342378 14.6080554,58.1848192 C17.0521881,55.7589287 20.2446156,54.5395614 23.4331672,54.5395614 L23.4331672,54.5318715 L23.4331672,54.5318715 Z M109.545817,54.9932947 L102.727468,61.7531739 C102.295906,62.1782711 102.084587,62.7763276 102.154107,63.3758509 L103.076135,71.6122906 C103.179091,72.5265175 103.906123,73.248137 104.82721,73.3503283 L113.133199,74.2654848 C113.732037,74.3296372 114.327807,74.1202661 114.752556,73.6963948 L121.578657,66.9211357 C121.545731,70.081369 120.736137,73.1866112 118.409675,75.4959519 C114.802176,79.0759222 109.367459,80.0901854 104.695492,78.0568631 C103.947452,77.7297625 103.073852,77.8915799 102.495027,78.4644568 L87.0607638,93.7914622 L82.357652,91.1305741 L82.357652,89.3771605 L97.9313804,73.9194184 C98.5145887,73.345274 98.6809581,72.4737539 98.3497801,71.7276474 C96.3041206,67.0967598 97.3187782,61.720221 100.914408,58.1386757 C103.242136,55.8336663 106.363608,55.0240071 109.545817,54.9932947 L109.545817,54.9932947 Z M25.6258888,57.1081625 C25.461382,57.1111182 25.2974127,57.1343678 25.1377565,57.1773758 L17.2269204,59.3691429 C16.5408597,59.5591754 16.0004728,60.0955377 15.8090132,60.7764901 L13.6085479,68.6284098 C13.4180681,69.3080975 13.6040064,70.0287344 14.0966802,70.520254 L19.7992995,76.1880926 C20.2960579,76.6798604 21.0258538,76.8646165 21.7130867,76.6725895 L29.6239188,74.4808185 C30.1465724,74.3401719 30.5940549,73.995955 30.8636187,73.5272045 C30.9440699,73.3837317 31.0065305,73.2313269 31.0495736,73.0734713 L33.2422952,65.2215516 C33.4327735,64.5418651 33.2468353,63.8212301 32.7541629,63.3297113 L27.0515436,57.6618688 C26.6755407,57.2921229 26.1613744,57.0924272 25.6258888,57.1081625 L25.6258888,57.1081625 Z M25.0215341,61.2763669 L29.1202913,65.3445983 L27.5396759,70.9893671 L21.8370566,72.5735945 L17.7305479,68.4899793 L19.3189148,62.8452144 L25.0215341,61.2763669 L25.0215341,61.2763669 Z M54.5883755,84.2245785 C58.0070551,86.6091253 62.1491124,88.0313366 66.6367069,88.0313366 C70.9917308,88.0313366 75.0321685,86.7126578 78.3906125,84.455292 L78.3906125,88.0313366 C78.3906046,89.2747974 77.4576283,90.6730648 75.3223534,91.8842382 C73.1870825,93.0950178 70.0173505,93.9375787 66.489494,93.9375787 C62.9616375,93.9375787 59.7919055,93.0950178 57.6566306,91.8842382 C55.5213597,90.6730648 54.5883834,89.2747974 54.5883755,88.0313366 L54.5883755,84.2245785 L54.5883755,84.2245785 Z M53.6973427,93.9221989 C54.3024313,94.4313169 54.9743367,94.894008 55.6886101,95.2987825 C58.5785865,96.9379615 62.3490988,97.8750735 66.489494,97.8750735 C70.6298892,97.8750735 74.4004016,96.9379615 77.2903779,95.2987825 C78.0046513,94.894008 78.6765567,94.4313169 79.2816453,93.9221989 L82.5281118,95.7602096 L76.0429305,121.500042 L56.6416279,121.500042 L50.1951887,95.9063261 L53.6973427,93.9221989 L53.6973427,93.9221989 Z M86.1077421,97.7904803 L92.9415905,101.666452 L86.0844992,128.898224 C86.0816671,128.916133 86.0790843,128.934079 86.0767516,128.952058 C85.5150228,131.48623 83.8692488,133.312526 81.6680695,133.312526 C79.3871249,133.312526 77.8200531,131.921827 78.0884352,129.636505 L86.1077421,97.7981703 L86.1077421,97.7904803 L86.1077421,97.7904803 Z M46.6155544,97.9365968 L54.5961231,129.636505 C54.8644933,131.921827 53.2974334,133.312526 51.0164888,133.312526 C48.8153095,133.312526 47.1695355,131.48623 46.6078067,128.952058 C46.6056355,128.928943 46.6030525,128.905869 46.6000591,128.882845 L39.7817099,101.804878 L46.6155544,97.9365968 L46.6155544,97.9365968 Z M96.5289684,103.689033 L102.851438,107.272767 C107.356904,109.814814 110.126929,114.531452 110.126929,119.646651 L110.126929,149.054815 L98.2258101,149.054815 L98.2258101,123.461099 C98.2257006,122.373835 97.3377127,121.492461 96.2422903,121.492352 L92.0428061,121.492352 L96.5289684,103.689033 L96.5289684,103.689033 Z M36.194328,103.835149 L40.6417522,121.492352 L36.7366977,121.492352 C35.6412753,121.492461 34.7532875,122.373835 34.7531779,123.461099 L34.7531779,149.054815 L22.8520594,149.054815 L22.8520594,119.646651 C22.8520594,114.531452 25.6220884,109.814814 30.1275464,107.272767 L30.135294,107.272767 L36.194328,103.835149 L36.194328,103.835149 Z M38.7202174,125.422157 L41.6335121,125.422157 L42.7337467,129.782625 C43.5906669,133.637039 46.6269755,137.226951 51.0164888,137.226951 C55.3189415,137.226951 59.1016843,133.637531 58.5399197,129.105868 C58.5319323,129.025689 58.5189939,128.946071 58.5011776,128.867465 L57.6333877,125.422157 L75.0511706,125.422157 L74.1833807,128.882845 C74.1658719,128.958919 74.152935,129.03596 74.1446386,129.113558 C73.582874,133.645221 77.3656168,137.234641 81.6680695,137.234641 C86.0575829,137.234641 89.0938914,133.644729 89.9508116,129.790315 L91.0510462,125.422157 L94.2587706,125.422157 L94.2587706,149.047125 L60.8256129,149.047125 L38.7202174,149.047125 L38.7202174,125.422157 L38.7202174,125.422157 Z M50.2261831,125.422157 C49.1307154,125.422157 48.2426634,126.303595 48.2426634,127.390904 C48.2426634,128.478213 49.1307154,129.359652 50.2261831,129.359652 C51.3216508,129.359652 52.2097029,128.478213 52.2097029,127.390904 C52.2097029,126.303595 51.3216508,125.422157 50.2261831,125.422157 L50.2261831,125.422157 Z M82.4583791,125.422157 C81.3629114,125.422157 80.4748594,126.303595 80.4748594,127.390904 C80.4748594,128.478213 81.3629114,129.359652 82.4583791,129.359652 C83.5538469,129.359652 84.4418989,128.478213 84.4418989,127.390904 C84.4418989,126.303595 83.5538469,125.422157 82.4583791,125.422157 L82.4583791,125.422157 Z" id="Shape"></path>
                    </g>
                </g>
            </g>
        </g>
    </g>
</svg>