<?xml version="1.0" encoding="UTF-8" standalone="no"?>
<svg width="60px" height="60px" viewBox="0 0 60 60" version="1.1" xmlns="http://www.w3.org/2000/svg" xmlns:xlink="http://www.w3.org/1999/xlink">
    <!-- Generator: Sketch 40.1 (33804) - http://www.bohemiancoding.com/sketch -->
    <title>noun_419257_cc</title>
    <desc>Created with Sketch.</desc>
    <defs></defs>
    <g id="Music-Fund-website---Visual-design" stroke="none" stroke-width="1" fill="none" fill-rule="evenodd" fill-opacity="0.85">
        <g id="MF---Our-work---Project---Desktop" transform="translate(-352.000000, -2554.000000)" fill="#FFFFFF">
            <g id="Group-25" transform="translate(145.000000, 2218.000000)">
                <g id="Group-23" transform="translate(0.000000, 148.000000)">
                    <g id="noun_419257_cc" transform="translate(207.000000, 188.000000)">
                        <g id="Group">
                            <path d="M30,0 C13.4,0 0,13.4 0,30 C0,46.6 13.4,60 30,60 C46.6,60 60,46.6 60,30 C60,13.4 46.6,0 30,0 L30,0 Z M40.4,31.6 L25.4,40.9333333 C25.0666667,41.1333333 24.7333333,41.2 24.4,41.2 C24.0666667,41.2 23.8,41.1333333 23.4666667,40.9333333 C22.8666667,40.6 22.5333333,40 22.5333333,39.2666667 L22.5333333,20.6 C22.5333333,19.9333333 22.9333333,19.2666667 23.4666667,18.9333333 C24.0666667,18.6 24.8,18.6 25.4,19 L40.4,28.4 C40.9333333,28.7333333 41.2666667,29.3333333 41.2666667,30 C41.2666667,30.6666667 40.9333333,31.2666667 40.4,31.6 L40.4,31.6 Z" id="Shape"></path>
                        </g>
                    </g>
                </g>
            </g>
        </g>
    </g>
</svg>