<?xml version="1.0" encoding="UTF-8" standalone="no"?>
<svg width="96px" height="96px" viewBox="0 0 96 96" version="1.1" xmlns="http://www.w3.org/2000/svg" xmlns:xlink="http://www.w3.org/1999/xlink">
    <!-- Generator: Sketch 40.1 (33804) - http://www.bohemiancoding.com/sketch -->
    <title>collected instruments</title>
    <desc>Created with Sketch.</desc>
    <defs></defs>
    <g id="Symbols" stroke="none" stroke-width="1" fill="none" fill-rule="evenodd">
        <g id="numbers" transform="translate(-160.000000, -203.000000)">
            <g id="Group-16">
                <g id="Group-15" transform="translate(108.000000, 176.000000)">
                    <g id="collected-instruments" transform="translate(52.000000, 27.000000)">
                        <g id="Group">
                            <path d="M18.763,33.848 C18.082,33.199 16.9,33.199 16.255,33.884 C15.932,34.209 15.717,34.676 15.717,35.144 C15.717,35.294 15.771,35.439 15.812,35.585 C15.899,35.895 16.036,36.195 16.255,36.439 C16.576,36.764 17.044,36.942 17.509,36.942 C17.974,36.942 18.438,36.764 18.799,36.404 C18.879,36.324 18.927,36.213 18.99,36.118 C19.189,35.826 19.335,35.494 19.335,35.144 C19.335,34.676 19.12,34.208 18.763,33.848 L18.763,33.848 Z" id="Shape" fill="#BC8303"></path>
                            <path d="M39.489,37.739 C39.406,37.514 39.28,37.31 39.116,37.147 C38.435,36.5 37.216,36.5 36.57,37.147 C36.544,37.173 36.533,37.212 36.509,37.24 C36.229,37.559 36.034,37.978 36.034,38.442 C36.034,38.91 36.249,39.379 36.57,39.702 C36.93,40.062 37.396,40.242 37.826,40.242 C38.29,40.242 38.755,40.062 39.116,39.702 C39.439,39.379 39.617,38.91 39.617,38.442 C39.617,38.194 39.572,37.957 39.489,37.739 L39.489,37.739 Z" id="Shape" fill="#BC8303"></path>
                            <path d="M59.432,40.74 C58.753,40.092 57.606,40.057 56.888,40.74 C56.532,41.102 56.352,41.534 56.352,42.035 C56.352,42.262 56.406,42.493 56.504,42.718 C56.593,42.924 56.717,43.123 56.888,43.295 C57.248,43.618 57.679,43.8 58.142,43.8 C58.608,43.8 59.075,43.618 59.432,43.295 C59.454,43.271 59.462,43.241 59.482,43.217 C59.766,42.872 59.935,42.473 59.935,42.035 C59.935,41.534 59.756,41.064 59.432,40.74 L59.432,40.74 Z" id="Shape" fill="#BC8303"></path>
                            <path d="M80.168,44.833 C80.088,44.521 79.958,44.227 79.713,44.004 C79.067,43.319 77.922,43.286 77.169,44.004 C77.089,44.093 77.044,44.201 76.981,44.301 C76.795,44.596 76.668,44.913 76.668,45.264 C76.668,45.732 76.848,46.199 77.206,46.559 C77.564,46.884 77.993,47.062 78.458,47.062 C78.925,47.062 79.391,46.884 79.712,46.559 C80.072,46.199 80.25,45.732 80.25,45.264 C80.252,45.115 80.204,44.974 80.168,44.833 L80.168,44.833 Z" id="Shape" fill="#BC8303"></path>
                            <path d="M19.01,69.854 C18.941,69.743 18.885,69.625 18.799,69.535 C18.118,68.886 16.934,68.886 16.255,69.535 C16.032,69.762 15.893,70.062 15.808,70.389 C15.771,70.535 15.717,70.675 15.717,70.831 C15.717,71.298 15.932,71.766 16.29,72.126 C16.613,72.448 17.079,72.631 17.509,72.631 C17.974,72.631 18.438,72.448 18.799,72.093 C19.12,71.766 19.335,71.298 19.335,70.831 C19.335,70.462 19.198,70.136 19.01,69.854 L19.01,69.854 Z" id="Shape" fill="#BC8303"></path>
                            <path d="M39.116,65.99 C38.435,65.303 37.216,65.341 36.57,65.99 C36.249,66.313 36.034,66.781 36.034,67.249 C36.034,67.713 36.231,68.109 36.511,68.455 C36.535,68.48 36.547,68.518 36.571,68.544 C36.931,68.87 37.397,69.049 37.827,69.049 C38.291,69.049 38.756,68.87 39.117,68.544 C39.271,68.369 39.391,68.169 39.477,67.957 C39.568,67.731 39.618,67.49 39.618,67.249 C39.617,66.781 39.439,66.313 39.116,65.99 L39.116,65.99 Z" id="Shape" fill="#BC8303"></path>
                            <path d="M59.485,62.477 C59.463,62.455 59.455,62.421 59.431,62.395 C58.787,61.746 57.568,61.712 56.887,62.395 C56.711,62.577 56.579,62.77 56.488,62.982 C56.397,63.189 56.351,63.42 56.351,63.653 C56.351,64.158 56.531,64.589 56.887,64.952 C57.247,65.275 57.678,65.49 58.141,65.49 C58.607,65.49 59.074,65.275 59.397,64.952 C59.755,64.589 59.934,64.158 59.934,63.653 C59.935,63.219 59.768,62.796 59.485,62.477 L59.485,62.477 Z" id="Shape" fill="#BC8303"></path>
                            <path d="M79.751,59.3 C79.068,58.617 77.851,58.654 77.207,59.3 C76.849,59.663 76.669,60.094 76.669,60.599 C76.669,60.944 76.802,61.275 77.003,61.564 C77.07,61.661 77.116,61.776 77.207,61.861 C77.53,62.184 77.994,62.395 78.459,62.395 C78.926,62.395 79.392,62.184 79.713,61.861 C79.958,61.638 80.088,61.345 80.166,61.037 C80.203,60.889 80.251,60.748 80.251,60.599 C80.252,60.094 80.074,59.663 79.751,59.3 L79.751,59.3 Z" id="Shape" fill="#BC8303"></path>
                            <path d="M73.962,20.597 L34.023,7.226 C34.024,7.137 34.049,7.055 34.049,6.966 C34.049,3.394 31.166,0.5 27.611,0.5 C24.054,0.5 21.171,3.395 21.171,6.966 C21.171,10.536 24.054,13.43 27.611,13.43 C29.804,13.43 31.737,12.324 32.899,10.639 L72.829,24.008 C73.018,24.071 73.209,24.101 73.395,24.101 C74.146,24.101 74.844,23.626 75.095,22.872 C75.407,21.929 74.899,20.91 73.962,20.597 L73.962,20.597 Z" id="Shape" fill="#9C6D03"></path>
                            <path d="M88.581,71.754 C85.026,71.754 82.143,74.649 82.143,78.218 C82.143,78.37 82.178,78.512 82.187,78.663 L42.355,91.993 C41.418,92.308 40.91,93.329 41.223,94.271 C41.473,95.021 42.171,95.5 42.921,95.5 C43.109,95.5 43.3,95.471 43.489,95.407 L83.416,82.04 C84.588,83.636 86.459,84.683 88.582,84.683 C92.139,84.683 95.022,81.788 95.022,78.218 C95.021,74.648 92.138,71.754 88.581,71.754 L88.581,71.754 Z" id="Shape" fill="#9C6D03"></path>
                            <path d="M94.002,46.031 L85.345,44.58 L85.345,37.607 C85.345,36.612 84.543,35.809 83.553,35.809 L73.394,35.809 C72.405,35.809 71.603,36.612 71.603,37.607 L71.603,42.281 L65.031,41.181 L65.031,32.503 C65.031,31.51 64.23,30.705 63.239,30.705 L53.08,30.705 C52.091,30.705 51.289,31.51 51.289,32.503 L51.289,38.882 L44.717,37.781 L44.717,27.408 C44.717,26.415 43.915,25.61 42.925,25.61 L32.765,25.61 C31.774,25.61 30.973,26.416 30.973,27.408 L30.973,35.479 L24.4,34.381 L24.4,22.306 C24.4,21.311 23.598,20.506 22.608,20.506 L12.451,20.506 C11.46,20.506 10.659,21.311 10.659,22.306 L10.659,32.08 L2.586,30.729 C2.065,30.644 1.534,30.788 1.133,31.131 C0.73,31.473 0.5,31.974 0.5,32.503 L0.5,73.301 C0.5,73.832 0.73,74.329 1.133,74.674 C1.46,74.952 1.869,75.098 2.293,75.098 C2.389,75.098 2.488,75.09 2.586,75.076 L10.659,73.725 L10.659,83.503 C10.659,84.497 11.461,85.303 12.451,85.303 L22.608,85.303 C23.599,85.303 24.4,84.497 24.4,83.503 L24.4,71.424 L30.972,70.325 L30.972,78.4 C30.972,79.394 31.774,80.2 32.764,80.2 L42.925,80.2 C43.916,80.2 44.717,79.394 44.717,78.4 L44.717,68.024 L51.289,66.925 L51.289,73.3 C51.289,74.295 52.091,75.097 53.08,75.097 L63.239,75.097 C64.23,75.097 65.031,74.295 65.031,73.3 L65.031,64.628 L71.603,63.525 L71.603,68.205 C71.603,69.199 72.404,70.001 73.394,70.001 L83.553,70.001 C84.544,70.001 85.345,69.199 85.345,68.205 L85.345,61.228 L94.002,59.777 C94.867,59.636 95.5,58.882 95.5,58.007 L95.5,47.805 C95.5,46.924 94.867,46.174 94.002,46.031 L94.002,46.031 Z M81.762,61.827 L81.762,66.406 L75.186,66.406 L75.186,62.926 L75.186,59.281 L75.186,46.529 L75.186,42.881 L75.186,39.407 L81.762,39.407 L81.762,43.981 L81.762,47.629 L81.762,58.183 L81.762,61.827 L81.762,61.827 Z M61.448,65.227 L61.448,71.501 L54.872,71.501 L54.872,66.328 L54.872,62.681 L54.872,43.127 L54.872,39.481 L54.872,34.302 L61.448,34.302 L61.448,40.581 L61.448,44.228 L61.448,61.581 L61.448,65.227 L61.448,65.227 Z M41.135,68.625 L41.135,76.604 L34.555,76.604 L34.555,69.728 L34.555,66.08 L34.555,39.729 L34.555,36.081 L34.555,29.208 L41.135,29.208 L41.135,37.181 L41.135,40.829 L41.135,64.978 L41.135,68.625 L41.135,68.625 Z M20.817,72.024 L20.817,81.706 L14.241,81.706 L14.241,73.123 L14.241,69.476 L14.241,36.329 L14.241,32.679 L14.241,24.103 L20.817,24.103 L20.817,33.781 L20.817,37.428 L20.817,68.376 L20.817,72.024 L20.817,72.024 Z M4.083,71.179 L4.083,34.627 L10.659,35.728 L10.659,70.076 L4.083,71.179 L4.083,71.179 Z M24.4,67.779 L24.4,38.027 L30.972,39.127 L30.972,66.681 L24.4,67.779 L24.4,67.779 Z M44.718,64.376 L44.718,41.43 L51.29,42.529 L51.29,63.279 L44.718,64.376 L44.718,64.376 Z M65.031,60.98 L65.031,44.829 L71.603,45.929 L71.603,59.879 L65.031,60.98 L65.031,60.98 Z M91.917,56.483 L85.345,57.582 L85.345,48.228 L91.917,49.328 L91.917,56.483 L91.917,56.483 Z" id="Shape" fill="#9C6D03"></path>
                        </g>
                    </g>
                </g>
            </g>
        </g>
    </g>
</svg>