<?xml version="1.0" encoding="UTF-8" standalone="no"?>
<svg width="61px" height="104px" viewBox="0 0 61 104" version="1.1" xmlns="http://www.w3.org/2000/svg" xmlns:xlink="http://www.w3.org/1999/xlink">
    <!-- Generator: Sketch 40.1 (33804) - http://www.bohemiancoding.com/sketch -->
    <title>collection points</title>
    <desc>Created with Sketch.</desc>
    <defs></defs>
    <g id="Symbols" stroke="none" stroke-width="1" fill="none" fill-rule="evenodd">
        <g id="numbers" transform="translate(-988.000000, -204.000000)" fill="#9C6D03">
            <g id="Group-16">
                <g id="Group-15" transform="translate(108.000000, 176.000000)">
                    <g id="collection-points" transform="translate(880.000000, 28.000000)">
                        <g id="Group">
                            <g transform="translate(0.762942, 0.000000)" id="Shape">
                                <path d="M48.5461315,30.1234568 C48.5461315,19.9733836 40.3089887,11.7226198 30.1756719,11.7226198 C20.042355,11.7226198 11.8052122,19.9733836 11.8052122,30.1234568 C11.8052122,40.27353 20.042355,48.5242938 30.1756719,48.5242938 C40.3089887,48.5242938 48.5461315,40.27353 48.5461315,30.1234568 L48.5461315,30.1234568 Z M15.1490028,30.1234568 C15.1490028,21.811425 21.8977511,15.0719397 30.1756719,15.0719397 C38.4739816,15.0719397 45.2023409,21.8318477 45.2023409,30.1234568 C45.2023409,38.4354886 38.4535926,45.1953965 30.1756719,45.1953965 C21.8773621,45.1749738 15.1490028,38.4150659 15.1490028,30.1234568 L15.1490028,30.1234568 Z"></path>
                                <path d="M38.6778713,76.4216782 C47.2004597,64.0455325 60.2493989,43.0101695 60.2493989,30.1234568 C60.2493989,13.5198159 46.7519024,0 30.1756719,0 C13.5994413,0 0.101944837,13.5198159 0.101944837,30.1234568 C0.101944837,43.0305922 13.130495,64.0455325 21.6734724,76.4216782 C13.6809972,78.6069052 8.4614215,83.6717305 8.4614215,89.5126177 C8.4614215,97.4978866 18.0034583,103.726805 30.1756719,103.726805 C42.3478854,103.726805 51.8899222,97.4774639 51.8899222,89.5126177 C51.8899222,83.6717305 46.6703465,78.6069052 38.6778713,76.4216782 L38.6778713,76.4216782 Z M30.1756719,3.34931994 C44.9168953,3.34931994 56.9056082,15.3578573 56.9056082,30.1234568 C56.9056082,45.5221594 35.74186,75.0737811 30.1756719,82.5689056 C24.6094837,75.0737811 3.4457355,45.5221594 3.4457355,30.1234568 C3.4457355,15.3578573 15.4344484,3.34931994 30.1756719,3.34931994 L30.1756719,3.34931994 Z M30.1756719,100.397908 C20.2054668,100.397908 11.8052122,95.414773 11.8052122,89.5126177 C11.8052122,85.0400502 16.6577864,80.9555137 23.7327581,79.3421218 C26.5668246,83.3449676 30.1960608,88.0626072 30.1960608,88.0626072 C30.1960608,88.0626072 33.825297,83.3449676 36.6593635,79.3421218 C43.7343352,80.935091 48.5869095,85.0196275 48.5869095,89.5126177 C48.5461315,95.414773 40.1458769,100.397908 30.1756719,100.397908 L30.1756719,100.397908 Z"></path>
                            </g>
                        </g>
                    </g>
                </g>
            </g>
        </g>
    </g>
</svg>